<svg width="122" height="80" viewBox="0 0 124 80" xmlns="http://www.w3.org/2000/svg">
  <path d="M114.578 10.8017C110.688 10.8017 107.461 21.1615 106.794 34.8072C105.484 18.8364 98.2118 6.61912 89.4401 6.61912C83.5393 6.61912 78.3262 12.1486 75.1373 20.6252C68.3039 8.32645 55.1657 0 40.0764 0C17.943 0 0 17.9098 0 40.0021C0 62.0945 17.943 80.0043 40.0764 80.0043C55.1657 80.0043 68.3039 71.6778 75.1415 59.3791C78.3262 67.8556 83.5436 73.3852 89.4444 73.3852C98.2161 73.3852 105.488 61.1679 106.799 45.1971C107.465 58.8428 110.692 69.2026 114.582 69.2026C118.953 69.2026 122.494 56.1274 122.494 40.0021C122.494 23.8769 118.953 10.8017 114.582 10.8017H114.578Z" fill="#FF6B33"/>
</svg>
