<svg width="282" height="80" viewBox="0 0 282 80" fill="none" xmlns="http://www.w3.org/2000/svg">
<g clip-path="url(#clip0_8001_154)">
<path d="M114.578 10.8017C110.688 10.8017 107.461 21.1615 106.794 34.8072C105.484 18.8364 98.2118 6.61912 89.4401 6.61912C83.5393 6.61912 78.3262 12.1486 75.1373 20.6252C68.3039 8.32645 55.1657 0 40.0764 0C17.943 0 0 17.9098 0 40.0021C0 62.0945 17.943 80.0043 40.0764 80.0043C55.1657 80.0043 68.3039 71.6778 75.1415 59.3791C78.3262 67.8556 83.5436 73.3852 89.4444 73.3852C98.2161 73.3852 105.488 61.1679 106.799 45.1971C107.465 58.8428 110.692 69.2026 114.582 69.2026C118.953 69.2026 122.494 56.1274 122.494 40.0021C122.494 23.8769 118.953 10.8017 114.582 10.8017H114.578Z" fill="#FF6B33"/>
<path d="M158.866 13.0581C158.367 11.7883 157.649 10.6687 156.721 9.69918C155.793 8.72969 154.675 7.96611 153.377 7.40844C152.075 6.85077 150.627 6.57193 149.024 6.57193H138.262V36.536H143.192V27.5489H149.024C150.623 27.5489 152.075 27.2701 153.377 26.7124C154.68 26.1547 155.793 25.3912 156.721 24.4217C157.649 23.4522 158.363 22.3369 158.866 21.0842C159.364 19.8273 159.618 18.4889 159.618 17.0604C159.618 15.6319 159.368 14.3278 158.866 13.0581ZM154.276 19.3941C154.005 20.1233 153.627 20.7625 153.141 21.3202C152.655 21.8778 152.062 22.3197 151.362 22.6457C150.661 22.976 149.883 23.139 149.024 23.139H143.192V10.9818H149.024C149.879 10.9818 150.661 11.1448 151.362 11.4751C152.062 11.8055 152.655 12.2473 153.141 12.8007C153.627 13.3584 154.005 13.9975 154.276 14.7268C154.546 15.4561 154.684 16.2325 154.684 17.0604C154.684 17.8884 154.546 18.6648 154.276 19.3941Z" fill="#0e1116"/>
<path d="M168.493 16.5886H163.817V36.536H168.493V16.5886Z" fill="#0e1116"/>
<path d="M166.133 12.7363C167.104 12.7363 167.925 12.4017 168.6 11.7325C169.27 11.0633 169.606 10.2568 169.606 9.31309C169.606 8.36934 169.27 7.52426 168.6 6.85076C167.93 6.18156 167.104 5.84695 166.133 5.84695C165.162 5.84695 164.38 6.18156 163.709 6.85076C163.039 7.51997 162.704 8.3436 162.704 9.31309C162.704 10.2826 163.039 11.0633 163.709 11.7325C164.38 12.4017 165.188 12.7363 166.133 12.7363Z" fill="#0e1116"/>
<path d="M183.5 37.0465C184.674 37.0465 185.838 36.7591 186.994 36.1928C188.15 35.6223 189.044 34.8373 189.676 33.8377V36.536H194.352V16.5886H189.676V19.2868C189.049 18.2873 188.155 17.5023 186.994 16.9317C185.838 16.3612 184.669 16.0738 183.5 16.0738C181.983 16.0738 180.599 16.3526 179.34 16.9103C178.081 17.468 177.002 18.2315 176.104 19.201C175.201 20.1705 174.501 21.2902 174.002 22.5599C173.504 23.8297 173.25 25.1638 173.25 26.5623C173.25 27.9608 173.499 29.3292 174.002 30.5861C174.501 31.843 175.201 32.9541 176.104 33.9235C177.006 34.893 178.085 35.6566 179.34 36.2143C180.599 36.7719 181.983 37.0508 183.5 37.0508V37.0465ZM177.926 26.5623C177.926 25.7086 178.064 24.8936 178.334 24.1214C178.605 23.3492 179.001 22.68 179.512 22.1095C180.028 21.539 180.642 21.0842 181.356 20.7411C182.069 20.3979 182.873 20.2263 183.758 20.2263C184.643 20.2263 185.451 20.3979 186.182 20.7411C186.913 21.0842 187.532 21.539 188.047 22.1095C188.563 22.68 188.963 23.3492 189.246 24.1214C189.53 24.8936 189.676 25.7043 189.676 26.5623C189.676 27.4202 189.534 28.231 189.246 29.0032C188.958 29.7753 188.559 30.4445 188.047 31.0151C187.532 31.5856 186.913 32.0403 186.182 32.3835C185.451 32.7267 184.643 32.8983 183.758 32.8983C182.873 32.8983 182.069 32.7267 181.356 32.3835C180.642 32.0403 180.028 31.5856 179.512 31.0151C178.996 30.4445 178.605 29.7753 178.334 29.0032C178.064 28.231 177.926 27.4202 177.926 26.5623Z" fill="#0e1116"/>
<path d="M205.281 26.2191C205.281 24.5075 205.672 23.0747 206.459 21.9165C207.245 20.7625 208.453 20.1834 210.082 20.1834C210.911 20.1834 211.603 20.3421 212.162 20.6553C212.721 20.9684 213.163 21.3888 213.49 21.9165C213.816 22.4441 214.053 23.079 214.199 23.8211C214.341 24.5633 214.414 25.3612 214.414 26.2191V36.536H219.09V24.6791C219.09 23.3106 218.995 22.1696 218.81 21.2558C218.626 20.3421 218.29 19.5142 217.805 18.7721C217.233 17.9441 216.455 17.2878 215.467 16.8031C214.478 16.3183 213.258 16.0738 211.801 16.0738C210.344 16.0738 209.012 16.3526 207.899 16.9103C206.785 17.468 205.913 18.2873 205.281 19.3726V16.5886H200.605V36.536H205.281V26.2191Z" fill="#0e1116"/>
<path d="M239.762 35.0775C240.536 34.4769 241.154 33.7863 241.627 33.0012C242.1 32.2162 242.405 31.3969 242.547 30.5389H237.828C237.544 31.251 237.097 31.8645 236.5 32.3792C235.898 32.894 234.927 33.1514 233.586 33.1514C232.615 33.1514 231.798 33.0141 231.141 32.7439C230.483 32.4736 229.946 32.1004 229.533 31.6328C229.116 31.1609 228.811 30.6118 228.609 29.9855C228.407 29.3592 228.278 28.6857 228.223 27.9736H242.504C242.616 27.3173 242.68 26.7553 242.697 26.2835C242.71 25.8116 242.719 25.404 242.719 25.0652C242.719 23.7825 242.482 22.5985 242.01 21.5132C241.537 20.4279 240.879 19.4799 240.037 18.6648C239.195 17.8498 238.206 17.2149 237.08 16.7602C235.95 16.3054 234.742 16.0738 233.457 16.0738C231.884 16.0738 230.483 16.3398 229.254 16.8674C228.025 17.395 226.993 18.1286 226.168 19.0723C225.339 20.0161 224.703 21.1271 224.26 22.4098C223.817 23.6924 223.594 25.078 223.594 26.5623C223.594 28.0465 223.8 29.3892 224.217 30.6719C224.63 31.9545 225.253 33.0699 226.082 34.0093C226.912 34.9531 227.947 35.6952 229.189 36.2357C230.432 36.7762 231.897 37.0508 233.586 37.0508C234.871 37.0508 236.031 36.8706 237.059 36.5146C238.09 36.1585 238.988 35.6781 239.762 35.0818V35.0775ZM229.684 20.8269C230.655 19.9989 231.871 19.5871 233.328 19.5871C234.785 19.5871 235.924 20.0204 236.822 20.8912C237.725 21.762 238.172 22.9675 238.172 24.5075H228.223C228.223 22.8817 228.708 21.6548 229.679 20.8269H229.684Z" fill="#0e1116"/>
<path d="M256.484 32.5551C256.029 32.5551 255.621 32.5122 255.264 32.4264C254.907 32.3406 254.598 32.1647 254.34 31.8945C254.082 31.6242 253.889 31.2338 253.76 30.7234C253.631 30.2129 253.566 29.5308 253.566 28.6771V20.488H258.156V16.5928H253.566V10.5571H248.89V16.5928H245.504V20.488H248.89V29.7753C248.89 31.4612 249.118 32.7696 249.578 33.7133C250.033 34.6571 250.601 35.3563 251.271 35.811C251.942 36.27 252.651 36.5446 253.394 36.6475C254.138 36.7462 254.795 36.7977 255.367 36.7977C256.055 36.7977 256.712 36.7677 257.34 36.7119C257.967 36.6561 258.47 36.5961 258.84 36.5403V32.4307C258.612 32.5165 258.255 32.5594 257.769 32.5594H256.484V32.5551Z" fill="#0e1116"/>
<path d="M277.324 16.5886V19.2868C276.697 18.2873 275.803 17.5023 274.642 16.9317C273.486 16.3612 272.317 16.0738 271.148 16.0738C269.631 16.0738 268.247 16.3526 266.988 16.9103C265.729 17.468 264.65 18.2315 263.752 19.201C262.849 20.1705 262.149 21.2902 261.65 22.5599C261.152 23.8297 260.898 25.1638 260.898 26.5623C260.898 27.9608 261.147 29.3292 261.65 30.5861C262.149 31.843 262.849 32.9541 263.752 33.9235C264.654 34.893 265.733 35.6566 266.988 36.2143C268.247 36.7719 269.631 37.0508 271.148 37.0508C272.321 37.0508 273.486 36.7634 274.642 36.1971C275.798 35.6266 276.692 34.8416 277.324 33.842V36.5403H282V16.5929H277.324V16.5886ZM276.894 29.0032C276.606 29.7753 276.207 30.4445 275.695 31.0151C275.179 31.5856 274.561 32.0403 273.83 32.3835C273.099 32.7267 272.291 32.8983 271.406 32.8983C270.521 32.8983 269.717 32.7267 269.004 32.3835C268.29 32.0403 267.676 31.5856 267.16 31.0151C266.644 30.4445 266.253 29.7753 265.982 29.0032C265.712 28.231 265.574 27.4202 265.574 26.5623C265.574 25.7043 265.712 24.8936 265.982 24.1214C266.253 23.3492 266.649 22.68 267.16 22.1095C267.676 21.539 268.29 21.0842 269.004 20.7411C269.717 20.3979 270.521 20.2263 271.406 20.2263C272.291 20.2263 273.099 20.3979 273.83 20.7411C274.561 21.0842 275.179 21.539 275.695 22.1095C276.211 22.68 276.611 23.3492 276.894 24.1214C277.178 24.8936 277.324 25.7043 277.324 26.5623C277.324 27.4202 277.182 28.231 276.894 29.0032Z" fill="#0e1116"/>
<path d="M154.168 58.4825C153.167 57.7704 152.058 57.1698 150.846 56.6851C149.63 56.2003 148.435 55.7413 147.266 55.3167C146.695 55.1193 146.153 54.8877 145.637 54.6303C145.122 54.3729 144.657 54.0726 144.245 53.7294C143.828 53.3863 143.501 52.9787 143.256 52.5111C143.011 52.0393 142.891 51.5073 142.891 50.9068C142.891 49.6241 143.334 48.6675 144.219 48.0412C145.104 47.4149 146.162 47.0974 147.391 47.0974C148.792 47.0974 149.892 47.5522 150.691 48.4659C151.491 49.3796 151.89 50.5765 151.89 52.0607H156.824C156.824 50.6623 156.579 49.3925 156.094 48.2514C155.608 47.1103 154.938 46.128 154.078 45.3C153.218 44.4721 152.204 43.8286 151.035 43.3739C149.862 42.9192 148.607 42.6876 147.262 42.6876C146.003 42.6876 144.812 42.8806 143.682 43.2667C142.551 43.6528 141.567 44.2104 140.725 44.9354C139.883 45.6647 139.208 46.5355 138.709 47.5479C138.211 48.5603 137.957 49.6799 137.957 50.9068C137.957 52.4211 138.215 53.6737 138.731 54.6732C139.247 55.6727 139.951 56.5221 140.854 57.2213C141.756 57.9205 142.805 58.5211 144.004 59.0187C145.203 59.5206 146.493 60.0097 147.863 60.4944C148.379 60.666 148.912 60.8719 149.471 61.1164C150.03 61.3609 150.541 61.6569 151.014 62.0173C151.486 62.3733 151.873 62.8109 152.17 63.3214C152.471 63.8361 152.621 64.4753 152.621 65.2475C152.621 65.9338 152.492 66.5473 152.234 67.0878C151.976 67.6283 151.628 68.0916 151.186 68.4777C150.743 68.8638 150.223 69.164 149.621 69.3785C149.02 69.593 148.379 69.7003 147.692 69.7003C145.977 69.7003 144.576 69.1726 143.488 68.1173C142.401 67.0621 141.86 65.5478 141.86 63.5788H136.93C136.93 65.2646 137.214 66.7532 137.785 68.053C138.357 69.3528 139.113 70.451 140.059 71.3475C141.004 72.2484 142.096 72.9305 143.338 73.4023C144.58 73.8742 145.891 74.1102 147.262 74.1102C148.633 74.1102 149.987 73.9085 151.229 73.5096C152.471 73.1106 153.567 72.5101 154.508 71.7122C155.453 70.9143 156.193 69.9276 156.738 68.7608C157.28 67.5897 157.555 66.2341 157.555 64.6941C157.555 63.2656 157.241 62.0559 156.609 61.0564C155.982 60.0569 155.165 59.2032 154.164 58.4868L154.168 58.4825Z" fill="#0e1116"/>
<path d="M170.508 69.4C170.053 69.4 169.644 69.3571 169.288 69.2713C168.931 69.1855 168.622 69.0096 168.364 68.7393C168.106 68.4691 167.912 68.0787 167.783 67.5682C167.655 67.0578 167.59 66.3757 167.59 65.522V57.3328H172.18V53.4377H167.59V47.402H162.914V53.4377H159.528V57.3328H162.914V66.6202C162.914 68.3061 163.142 69.6145 163.602 70.5582C164.057 71.502 164.625 72.2012 165.295 72.6559C165.966 73.1149 166.675 73.3895 167.418 73.4924C168.162 73.5911 168.819 73.6426 169.391 73.6426C170.078 73.6426 170.736 73.6125 171.363 73.5568C171.991 73.501 172.494 73.4409 172.863 73.3852V69.2756C172.636 69.3614 172.279 69.4043 171.793 69.4043H170.508V69.4Z" fill="#0e1116"/>
<path d="M190.316 63.7503C190.316 65.4619 189.921 66.8947 189.139 68.053C188.352 69.2069 187.145 69.786 185.516 69.786C184.686 69.786 183.995 69.6316 183.436 69.3142C182.877 69.001 182.434 68.5806 182.108 68.053C181.777 67.5253 181.545 66.8904 181.399 66.1483C181.257 65.4062 181.184 64.6083 181.184 63.7503V53.4334H176.508V65.2903C176.508 66.6588 176.602 67.7999 176.787 68.7136C176.972 69.6273 177.307 70.4552 177.793 71.1974C178.364 72.0253 179.142 72.6816 180.131 73.1664C181.119 73.6511 182.34 73.8956 183.797 73.8956C185.254 73.8956 186.586 73.6168 187.699 73.0591C188.812 72.5015 189.685 71.6821 190.316 70.5968V73.3809H194.992V53.4334H190.316V63.7503Z" fill="#0e1116"/>
<path d="M216.176 56.1317C215.548 55.1322 214.655 54.3471 213.494 53.7766C212.338 53.2061 211.169 52.9186 210 52.9186C208.483 52.9186 207.099 53.1975 205.84 53.7551C204.581 54.3128 203.502 55.0764 202.604 56.0459C201.701 57.0154 201.001 58.135 200.502 59.4048C200.004 60.6746 199.75 62.0087 199.75 63.4071C199.75 64.8056 199.999 66.174 200.502 67.4309C201.001 68.6879 201.701 69.7989 202.604 70.7684C203.506 71.7379 204.585 72.5015 205.84 73.0591C207.099 73.6168 208.483 73.8956 210 73.8956C211.173 73.8956 212.338 73.6082 213.494 73.042C214.65 72.4714 215.544 71.6864 216.176 70.6869V73.3852H220.852V43.4211H216.176V56.1317ZM215.746 65.848C215.458 66.6202 215.059 67.2894 214.547 67.8599C214.031 68.4305 213.412 68.8852 212.682 69.2284C211.951 69.5715 211.143 69.7431 210.258 69.7431C209.373 69.7431 208.569 69.5715 207.856 69.2284C207.142 68.8852 206.528 68.4305 206.012 67.8599C205.496 67.2894 205.105 66.6202 204.834 65.848C204.563 65.0759 204.426 64.2651 204.426 63.4071C204.426 62.5492 204.563 61.7384 204.834 60.9663C205.105 60.1941 205.5 59.5249 206.012 58.9543C206.528 58.3838 207.142 57.9291 207.856 57.5859C208.569 57.2427 209.373 57.0711 210.258 57.0711C211.143 57.0711 211.951 57.2427 212.682 57.5859C213.412 57.9291 214.031 58.3838 214.547 58.9543C215.063 59.5249 215.463 60.1941 215.746 60.9663C216.03 61.7384 216.176 62.5492 216.176 63.4071C216.176 64.2651 216.034 65.0759 215.746 65.848Z" fill="#0e1116"/>
<path d="M231.785 53.4334H227.109V73.3809H231.785V53.4334Z" fill="#0e1116"/>
<path d="M229.426 42.6918C228.48 42.6918 227.672 43.0264 227.002 43.6956C226.331 44.3648 225.996 45.1885 225.996 46.158C225.996 47.1275 226.331 47.9082 227.002 48.5774C227.672 49.2466 228.48 49.5812 229.426 49.5812C230.371 49.5812 231.218 49.2466 231.893 48.5774C232.567 47.9082 232.898 47.1017 232.898 46.158C232.898 45.2142 232.563 44.3691 231.893 43.6956C231.222 43.0264 230.397 42.6918 229.426 42.6918Z" fill="#0e1116"/>
<path d="M254.748 56.0459C253.82 55.0764 252.702 54.3128 251.404 53.7551C250.102 53.1975 248.654 52.9186 247.051 52.9186C245.448 52.9186 244.008 53.1975 242.719 53.7551C241.434 54.3128 240.334 55.0764 239.418 56.0459C238.503 57.0154 237.794 58.135 237.295 59.4048C236.796 60.6746 236.543 62.0087 236.543 63.4071C236.543 64.8056 236.792 66.174 237.295 67.4309C237.794 68.6879 238.503 69.7989 239.418 70.7684C240.334 71.7379 241.434 72.5015 242.719 73.0591C244.004 73.6168 245.448 73.8956 247.051 73.8956C248.654 73.8956 250.102 73.6168 251.404 73.0591C252.707 72.5015 253.82 71.7379 254.748 70.7684C255.676 69.7989 256.39 68.6879 256.893 67.4309C257.391 66.174 257.645 64.8356 257.645 63.4071C257.645 61.9786 257.395 60.6746 256.893 59.4048C256.394 58.135 255.676 57.0154 254.748 56.0459ZM252.539 65.848C252.251 66.6202 251.851 67.2894 251.34 67.8599C250.824 68.4305 250.205 68.8852 249.475 69.2284C248.744 69.5715 247.936 69.7431 247.051 69.7431C246.166 69.7431 245.362 69.5715 244.648 69.2284C243.935 68.8852 243.32 68.4305 242.805 67.8599C242.289 67.2894 241.898 66.6202 241.627 65.848C241.356 65.0759 241.219 64.2651 241.219 63.4071C241.219 62.5492 241.356 61.7384 241.627 60.9663C241.898 60.1941 242.293 59.5249 242.805 58.9543C243.32 58.3838 243.935 57.9291 244.648 57.5859C245.362 57.2427 246.166 57.0711 247.051 57.0711C247.936 57.0711 248.744 57.2427 249.475 57.5859C250.205 57.9291 250.824 58.3838 251.34 58.9543C251.856 59.5249 252.255 60.1941 252.539 60.9663C252.823 61.7384 252.969 62.5492 252.969 63.4071C252.969 64.2651 252.827 65.0759 252.539 65.848Z" fill="#0e1116"/>
</g>
<defs>
<clipPath id="clip0_8001_154">
<rect width="282" height="80" fill="white"/>
</clipPath>
</defs>
</svg>
